<mxfile>
    <diagram id="9HC-5Oe25mxIpZVivqlj" name="arq">
        <mxGraphModel dx="596" dy="419" grid="1" gridSize="10" guides="1" tooltips="1" connect="1" arrows="1" fold="1" page="1" pageScale="1" pageWidth="827" pageHeight="1169" background="#182E3E" math="0" shadow="0">
            <root>
                <mxCell id="0"/>
                <mxCell id="1" parent="0"/>
                <mxCell id="6" style="edgeStyle=orthogonalEdgeStyle;rounded=0;orthogonalLoop=1;jettySize=auto;html=1;entryX=0;entryY=0.5;entryDx=0;entryDy=0;labelBackgroundColor=#182E3E;strokeColor=#FFFFFF;fontColor=#FFFFFF;" edge="1" parent="1" source="2" target="7">
                    <mxGeometry relative="1" as="geometry">
                        <mxPoint x="210" y="200" as="targetPoint"/>
                    </mxGeometry>
                </mxCell>
                <mxCell id="2" value="Monitoring Sink" style="rounded=1;whiteSpace=wrap;html=1;fillColor=#EEEEEE;strokeColor=#FFFFFF;fontColor=#1A1A1A;" vertex="1" parent="1">
                    <mxGeometry x="50" y="170" width="120" height="60" as="geometry"/>
                </mxCell>
                <mxCell id="11" style="edgeStyle=orthogonalEdgeStyle;rounded=0;orthogonalLoop=1;jettySize=auto;html=1;labelBackgroundColor=#182E3E;strokeColor=#FFFFFF;fontColor=#FFFFFF;" edge="1" parent="1" source="3" target="4">
                    <mxGeometry relative="1" as="geometry"/>
                </mxCell>
                <mxCell id="3" value="Archon" style="rounded=1;whiteSpace=wrap;html=1;fillColor=#EEEEEE;strokeColor=#FFFFFF;fontColor=#1A1A1A;" vertex="1" parent="1">
                    <mxGeometry x="250" y="170" width="120" height="60" as="geometry"/>
                </mxCell>
                <mxCell id="4" value="MySql" style="rounded=1;whiteSpace=wrap;html=1;fillColor=#EEEEEE;strokeColor=#FFFFFF;fontColor=#1A1A1A;" vertex="1" parent="1">
                    <mxGeometry x="250" y="290" width="120" height="60" as="geometry"/>
                </mxCell>
                <mxCell id="12" style="edgeStyle=orthogonalEdgeStyle;rounded=0;orthogonalLoop=1;jettySize=auto;html=1;entryX=1;entryY=0.5;entryDx=0;entryDy=0;labelBackgroundColor=#182E3E;strokeColor=#FFFFFF;fontColor=#FFFFFF;" edge="1" parent="1" source="5" target="4">
                    <mxGeometry relative="1" as="geometry"/>
                </mxCell>
                <mxCell id="5" value="Grafana" style="rounded=1;whiteSpace=wrap;html=1;fillColor=#EEEEEE;strokeColor=#FFFFFF;fontColor=#1A1A1A;" vertex="1" parent="1">
                    <mxGeometry x="450" y="170" width="120" height="60" as="geometry"/>
                </mxCell>
                <mxCell id="9" style="edgeStyle=orthogonalEdgeStyle;rounded=0;orthogonalLoop=1;jettySize=auto;html=1;entryX=0;entryY=0.5;entryDx=0;entryDy=0;labelBackgroundColor=#182E3E;strokeColor=#FFFFFF;fontColor=#FFFFFF;" edge="1" parent="1" source="7" target="3">
                    <mxGeometry relative="1" as="geometry"/>
                </mxCell>
                <mxCell id="7" value="Data.csv" style="rounded=1;whiteSpace=wrap;html=1;fillColor=#EEEEEE;strokeColor=#FFFFFF;fontColor=#1A1A1A;" vertex="1" parent="1">
                    <mxGeometry x="140" y="30" width="120" height="60" as="geometry"/>
                </mxCell>
                <mxCell id="10" style="edgeStyle=orthogonalEdgeStyle;rounded=0;orthogonalLoop=1;jettySize=auto;html=1;labelBackgroundColor=#182E3E;strokeColor=#FFFFFF;fontColor=#FFFFFF;" edge="1" parent="1" source="8" target="3">
                    <mxGeometry relative="1" as="geometry"/>
                </mxCell>
                <mxCell id="8" value="Products.yaml&lt;br&gt;Members.yaml&lt;br&gt;Squads.yaml" style="rounded=1;whiteSpace=wrap;html=1;fillColor=#EEEEEE;strokeColor=#FFFFFF;fontColor=#1A1A1A;" vertex="1" parent="1">
                    <mxGeometry x="320" y="30" width="120" height="60" as="geometry"/>
                </mxCell>
            </root>
        </mxGraphModel>
    </diagram>
</mxfile>